<svg xmlns="http://www.w3.org/2000/svg" width="767" height="194" fill="none"><path fill="#EF0491" d="M5.798 0h96.954c3.2 0 5.797 2.597 5.797 5.796v28.298c0 3.199-2.597 5.796-5.797 5.796H43.007v35.745h41.57a5.8 5.8 0 0 1 5.797 5.796v28.298a5.8 5.8 0 0 1-5.798 5.796H43.007v69.317a5.8 5.8 0 0 1-5.798 5.796H5.798A5.8 5.8 0 0 1 0 184.842V5.796A5.8 5.8 0 0 1 5.798 0m102.751 121.993c0-42.22 31.348-71.23 68.395-71.23 15.283 0 30.31 5.182 39.639 15.024l.139-6.758a5.797 5.797 0 0 1 5.798-5.675h24.796a5.8 5.8 0 0 1 5.798 5.797V184.83a5.8 5.8 0 0 1-5.798 5.797H222.52a5.8 5.8 0 0 1-5.798-5.675l-.139-6.758c-9.329 9.842-24.35 15.024-39.639 15.024-37.047 0-68.395-29.011-68.395-71.225m73.839 33.932c18.651 0 32.386-13.21 32.386-33.932 0-20.721-13.729-33.93-32.386-33.93s-32.901 13.209-32.901 33.93c0 20.722 13.989 33.932 32.901 33.932M331.394 49.987c37.308 0 60.104 22.79 60.104 59.573v75.276c0 3.2-2.597 5.796-5.798 5.796h-29.336a5.8 5.8 0 0 1-5.798-5.796V111.12c0-14.763-6.991-23.052-19.172-23.052s-19.173 8.289-19.173 23.052v73.716c0 3.2-2.598 5.796-5.798 5.796h-29.336a5.8 5.8 0 0 1-5.798-5.796V109.56c0-36.777 22.797-59.573 60.105-59.573m120.794 61.388v73.461c0 3.2-2.598 5.796-5.798 5.796h-31.412a5.8 5.8 0 0 1-5.797-5.796V5.796c0-3.2 2.597-5.796 5.797-5.796h31.412a5.8 5.8 0 0 1 5.798 5.796v68.02l49.993-70.872A6.96 6.96 0 0 1 507.868 0h37.853c3.78 0 5.972 4.283 3.763 7.35l-60.249 83.564 64.122 92.438c2.133 3.078-.07 7.28-3.809 7.28h-39.79a6.96 6.96 0 0 1-5.751-3.043l-51.814-76.209zm162.699 82.619c-37.308 0-60.104-22.791-60.104-59.574V59.15c0-3.199 2.597-5.796 5.798-5.796h29.336c3.2 0 5.797 2.597 5.797 5.797v73.716c0 14.763 6.992 23.052 19.173 23.052s19.173-8.289 19.173-23.052V59.151c0-3.2 2.597-5.797 5.798-5.797h29.336c3.2 0 5.797 2.597 5.797 5.797v75.275c0 36.777-22.796 59.574-60.104 59.574zm94.6-103.857h-10.522a5.8 5.8 0 0 1-5.798-5.796V59.156c0-3.2 2.597-5.796 5.798-5.796h10.522V18.276a6.96 6.96 0 0 1 4.818-6.62l30.049-9.697c2.998-.968 6.065 1.264 6.065 4.411v46.984h10.783A5.8 5.8 0 0 1 767 59.151v25.184c0 3.2-2.597 5.797-5.798 5.797h-10.783l-.244 94.716c-.005 3.193-2.603 5.779-5.797 5.779h-29.337a5.8 5.8 0 0 1-5.797-5.814l.243-94.681z"/></svg>